<svg xmlns="http://www.w3.org/2000/svg" viewBox="0 0 220 72" width="220" height="72" role="img" aria-label="Solvor Paints Logo">
  <g transform="translate(196,14)">
    <polygon points="0,0 -2.5,18 2.5,18" fill="#3d1c07" transform="rotate(0)"/>
    <polygon points="0,0 -2.5,18 2.5,18" fill="#3d1c07" transform="rotate(22)"/>
    <polygon points="0,0 -2.5,18 2.5,18" fill="#3d1c07" transform="rotate(44)"/>
    <polygon points="0,0 -2.5,18 2.5,18" fill="#3d1c07" transform="rotate(66)"/>
    <polygon points="0,0 -2.5,18 2.5,18" fill="#3d1c07" transform="rotate(88)"/>
    <polygon points="0,0 -2.5,18 2.5,18" fill="#3d1c07" transform="rotate(110)"/>
    <polygon points="0,0 -2.5,18 2.5,18" fill="#3d1c07" transform="rotate(132)"/>
    <polygon points="0,0 -2.5,18 2.5,18" fill="#3d1c07" transform="rotate(154)"/>
    <polygon points="0,0 -2.5,18 2.5,18" fill="#3d1c07" transform="rotate(176)"/>
    <polygon points="0,0 -2.5,18 2.5,18" fill="#3d1c07" transform="rotate(198)"/>
    <polygon points="0,0 -2.5,18 2.5,18" fill="#3d1c07" transform="rotate(220)"/>
    <polygon points="0,0 -2.5,18 2.5,18" fill="#3d1c07" transform="rotate(242)"/>
    <polygon points="0,0 -2.5,18 2.5,18" fill="#3d1c07" transform="rotate(264)"/>
    <polygon points="0,0 -2.5,18 2.5,18" fill="#3d1c07" transform="rotate(286)"/>
    <polygon points="0,0 -2.5,18 2.5,18" fill="#3d1c07" transform="rotate(308)"/>
    <polygon points="0,0 -2.5,18 2.5,18" fill="#3d1c07" transform="rotate(330)"/>
    <circle cx="0" cy="0" r="3" fill="#3d1c07"/>
  </g>
  <text x="4" y="52" font-family="'Montserrat','Arial Black',sans-serif" font-size="42" font-weight="900" fill="#3d1c07" letter-spacing="-1">Solvor</text>
  <path d="M4,61 Q62,52 124,59 Q160,63 192,58" stroke="#3a80d2" stroke-width="3.5" stroke-linecap="round" fill="none"/>
  <text x="6" y="70" font-family="'Montserrat','Arial',sans-serif" font-size="11" font-weight="700" fill="rgba(61,28,7,0.65)" letter-spacing="3">PAINTS</text>
</svg>
